<svg width="32" height="32" viewBox="0 0 1024 1024" fill="none" xmlns="http://www.w3.org/2000/svg">
  <!-- InSAEght Logo - Eye of Horus -->
<path fill="#5d8a6b" stroke="#5d8a6b" stroke-width="18" stroke-linejoin="round"
	d="
M409.421875,561.585876
	C445.038147,601.943359 480.348236,642.100891 515.827637,682.108276
	C534.947571,703.668335 553.367065,725.861572 573.635376,746.391724
	C596.762573,769.817810 621.692139,791.031250 649.342041,809.014893
	C683.476318,831.215881 720.374451,846.779480 759.867310,856.574341
	C792.919617,864.771851 825.670105,865.553589 858.273865,854.640442
	C891.219421,843.612854 914.158813,821.758789 927.648865,789.966858
	C930.444702,783.377930 930.789001,775.995544 931.340027,768.897278
	C932.986572,747.685791 931.264221,726.889099 921.222717,707.613464
	C909.870850,685.822754 891.872925,672.653931 867.313538,671.811768
	C846.145020,671.085876 828.718323,680.607056 816.262756,698.228516
	C816.109924,698.444702 816.243713,698.863586 816.243713,699.265137
	C818.528198,700.293579 820.458252,698.818604 822.433533,698.270691
	C833.486206,695.205261 844.660156,693.749512 855.983032,696.216797
	C882.273926,701.945679 891.867554,725.108582 889.499695,745.716248
	C887.844238,760.123169 882.630127,773.178894 872.595215,783.891724
	C857.433044,800.078247 838.503662,804.562439 818.481628,795.125061
	C792.557983,782.906006 774.527222,763.454834 769.478882,734.247559
	C766.113403,714.776855 771.434692,696.801941 781.527588,680.327454
	C795.823853,656.991760 816.020996,640.646118 842.454651,633.012024
	C864.615051,626.612122 886.479553,628.495300 907.914490,637.256165
	C945.382629,652.569824 964.734009,681.649475 972.183594,720.176208
	C976.045959,740.151184 976.360718,760.351562 974.834839,780.423096
	C973.764465,794.502563 968.744324,808.012085 963.341553,821.144348
	C951.915833,848.916504 934.551941,871.701843 907.855774,886.487732
	C890.708862,895.984741 872.091003,900.905762 852.782532,903.298828
	C825.670349,906.658936 798.694946,905.152588 771.632202,901.675964
	C692.048218,891.452209 624.939941,855.772522 566.246643,802.476685
	C533.146240,772.420227 505.269989,737.832031 478.386139,702.288452
	C441.090454,652.979126 402.988464,604.297668 360.186066,559.533447
	C333.764801,531.901184 305.647705,506.184998 274.357544,484.088715
	C273.057404,483.170563 271.886963,481.779724 268.805908,482.327820
	C272.639374,613.898010 271.003571,745.543274 262.080902,877.292847
	C214.662399,770.548462 157.899536,669.527283 86.052773,577.304260
	C86.408768,576.925476 86.764771,576.546631 87.120766,576.167786
	C90.468361,577.386230 93.828644,578.571045 97.161484,579.828613
	C117.949196,587.672180 139.335159,592.540955 161.645889,590.593994
	C199.579895,587.283691 227.916977,563.631409 234.439331,525.090942
	C242.184982,479.321869 218.400208,438.120331 175.843307,419.727356
	C154.280869,410.408142 132.860168,400.817383 110.370277,393.863617
	C87.500069,386.792297 64.248917,382.011566 40.200478,382.241394
	C35.622913,382.285156 33.929855,380.599152 33.857197,376.190399
	C33.722866,368.039093 32.981533,359.917206 31.808113,351.846313
	C31.182905,347.546112 32.432907,346.237030 37.181213,346.365417
	C65.913368,347.142273 94.324043,344.123993 122.448563,338.210754
	C165.838989,329.087799 206.991470,313.303131 247.878922,296.604614
	C285.480042,281.248199 322.789642,265.056030 361.639618,252.998154
	C389.157135,244.457535 417.115997,237.824463 445.848938,234.432068
	C466.076630,232.043854 486.307159,230.639130 506.624115,231.119202
	C529.100830,231.650330 551.390137,234.186432 573.560486,238.162521
	C619.192383,246.346268 662.683838,261.281464 705.641785,278.286285
	C742.799011,292.994812 779.447021,308.989960 817.009827,322.662903
	C856.938904,337.197205 897.432495,349.783783 939.311340,357.569244
	C961.929138,361.773987 984.675781,364.777435 1007.639282,365.966248
	C1012.554443,366.220734 1014.290527,367.880096 1014.104858,372.880157
	C1013.270264,395.352936 1012.742004,417.837067 1012.086060,440.316589
	C1012.053040,441.447632 1012.211487,442.684479 1010.960754,443.626984
	C1008.313965,443.777679 1007.133606,441.453674 1005.569153,439.923706
	C996.112854,430.675690 985.931458,422.431427 974.191467,416.188385
	C949.874878,403.257202 925.590515,405.037292 901.914612,417.297943
	C883.146667,427.016907 865.203552,438.319183 846.525330,448.222504
	C803.146423,471.222290 757.911377,489.867676 710.814270,503.779144
	C669.880493,515.870117 628.188049,524.480896 585.713684,529.018677
	C551.020752,532.725037 516.221985,533.643494 481.439026,530.966614
	C443.666351,528.059570 406.521454,521.510376 370.536530,509.248871
	C368.968323,508.714539 367.326935,508.374084 365.698761,508.047577
	C365.115265,507.930603 364.469879,508.121887 362.609222,508.274384
	C378.546021,526.425659 393.866119,543.874573 409.421875,561.585876
M269.297272,325.946899
	C231.020584,341.101532 192.706894,356.155212 152.364517,368.098999
	C154.531952,369.634644 155.804413,370.688202 157.211945,371.510620
	C177.485321,383.356689 197.843582,395.027435 218.650024,405.949799
	C276.860168,436.507202 337.324432,460.923187 401.714722,475.089630
	C432.055176,481.764862 462.772888,485.458221 493.751007,486.627289
	C542.237671,488.457123 590.200012,483.577576 637.572876,473.295868
	C663.921875,467.577179 689.875427,460.253448 715.608459,452.178162
	C766.038879,436.352631 814.945190,416.527618 863.492676,395.773804
	C868.290833,393.722595 873.397827,392.127869 878.486877,388.449097
	C875.606995,387.517456 873.604065,386.817749 871.570984,386.220703
	C862.464050,383.546173 853.303101,381.046509 844.243652,378.220795
	C794.924438,362.837708 747.115479,343.355865 699.050049,324.574188
	C656.066040,307.778107 612.622070,292.432587 567.340881,282.924133
	C563.434875,282.103943 559.459229,280.713928 555.281616,281.661224
	C555.375610,282.329315 555.309692,282.735840 555.482544,282.947144
	C556.639771,284.362244 557.801880,285.778564 559.046814,287.115875
	C568.122253,296.864380 575.506348,307.798859 579.742432,320.408508
	C592.309509,357.816498 584.591125,391.233185 557.739502,419.715942
	C535.313477,443.504211 506.830566,455.756744 474.463776,458.419739
	C431.077820,461.989349 392.894958,450.018158 362.757751,417.568665
	C335.896606,388.646545 327.839020,347.343414 347.278412,310.194489
	C349.788239,305.398193 352.576965,300.747833 356.007721,294.661713
	C325.789734,303.458771 297.908661,314.587982 269.297272,325.946899
z"/>
<path fill="#5d8a6b" stroke="#5d8a6b" stroke-width="18" stroke-linejoin="round"
	d="
M57.660309,283.533997
	C38.999653,281.661957 22.560513,275.533264 7.404125,263.720551
	C12.090167,261.759644 15.964915,262.075226 19.702328,261.945312
	C51.120941,260.853424 81.900345,255.773346 112.314812,247.935303
	C147.706650,238.814560 181.699997,225.732117 215.622452,212.383133
	C250.028275,198.843933 283.454834,182.999298 317.683411,169.063019
	C345.838074,157.599777 375.168457,150.301712 405.215729,145.551407
	C438.252411,140.328506 471.462311,138.886642 504.793579,139.908157
	C536.932373,140.893112 568.835754,144.454376 600.499023,150.148331
	C643.000305,157.791229 684.720337,168.431000 725.530579,182.561798
	C756.396545,193.249344 786.449463,205.920258 816.029480,219.762863
	C848.240967,234.836914 882.014893,244.643463 917.352356,248.861603
	C944.765686,252.133850 972.179993,252.217651 999.562317,248.373108
	C1000.538086,248.236115 1001.542053,248.243073 1002.528870,248.282822
	C1002.772766,248.292664 1003.000793,248.694382 1003.313477,248.988815
	C1003.513672,251.246841 1001.506714,251.922501 1000.182617,252.997375
	C980.131104,269.274658 956.520813,276.059387 931.351379,278.150513
	C901.402039,280.638824 871.946838,276.785004 842.587280,270.942993
	C795.733276,261.619934 750.574829,246.722260 705.688538,230.765060
	C665.910217,216.623749 625.009033,207.010437 583.355225,200.176041
	C539.083862,192.912170 494.548981,191.587448 449.920929,193.605911
	C423.846405,194.785217 397.978333,198.664459 372.336761,203.910416
	C326.998138,213.186188 283.545319,228.594910 240.060715,243.935333
	C205.044617,256.288208 169.966217,268.486267 133.755676,276.917786
	C110.540657,282.323303 87.053558,286.079559 63.042805,284.261780
	C61.389511,284.136597 59.749619,283.834442 57.660309,283.533997
z"/>
</svg>
