<svg width="32" height="32" viewBox="0 0 32 32" fill="none" xmlns="http://www.w3.org/2000/svg">
  <!-- Open book with curved pages - wisdom symbol for SAEGE -->

  <!-- Left page with curve -->
  <path d="M3 7C3 5.89543 3.89543 5 5 5H15C15 5 15 7 15 16C15 25 15 27 15 27H5C3.89543 27 3 26.1046 3 25V7Z"
        fill="#7c9885"
        stroke="#4a6552"
        stroke-width="1.8"
        stroke-linejoin="round"/>

  <!-- Left page curve detail (inner shadow) -->
  <path d="M15 5C15 5 13 8 13 16C13 24 15 27 15 27"
        stroke="#4a6552"
        stroke-width="1.2"
        fill="none"
        opacity="0.3"/>

  <!-- Right page with curve -->
  <path d="M17 5C17 5 17 7 17 16C17 25 17 27 17 27H27C28.1046 27 29 26.1046 29 25V7C29 5.89543 28.1046 5 27 5H17Z"
        fill="#7c9885"
        stroke="#4a6552"
        stroke-width="1.8"
        stroke-linejoin="round"/>

  <!-- Right page curve detail (inner shadow) -->
  <path d="M17 5C17 5 19 8 19 16C19 24 17 27 17 27"
        stroke="#4a6552"
        stroke-width="1.2"
        fill="none"
        opacity="0.3"/>

  <!-- Book spine/center fold with shadow -->
  <ellipse cx="16" cy="16" rx="1.5" ry="11"
           fill="#4a6552"
           opacity="0.25"/>

  <!-- Page lines on left page (curved) -->
  <path d="M6 10C6 10 8 10.2 12 10" stroke="#4a6552" stroke-width="0.7" opacity="0.35" stroke-linecap="round"/>
  <path d="M6 13C6 13 8 13.2 12 13" stroke="#4a6552" stroke-width="0.7" opacity="0.35" stroke-linecap="round"/>
  <path d="M6 16C6 16 8 16.2 12 16" stroke="#4a6552" stroke-width="0.7" opacity="0.35" stroke-linecap="round"/>
  <path d="M6 19C6 19 8 19.2 12 19" stroke="#4a6552" stroke-width="0.7" opacity="0.35" stroke-linecap="round"/>
  <path d="M6 22C6 22 8 22.2 12 22" stroke="#4a6552" stroke-width="0.7" opacity="0.35" stroke-linecap="round"/>

  <!-- Page lines on right page (curved) -->
  <path d="M20 10C20 10 24 10.2 26 10" stroke="#4a6552" stroke-width="0.7" opacity="0.35" stroke-linecap="round"/>
  <path d="M20 13C20 13 24 13.2 26 13" stroke="#4a6552" stroke-width="0.7" opacity="0.35" stroke-linecap="round"/>
  <path d="M20 16C20 16 24 16.2 26 16" stroke="#4a6552" stroke-width="0.7" opacity="0.35" stroke-linecap="round"/>
  <path d="M20 19C20 19 24 19.2 26 19" stroke="#4a6552" stroke-width="0.7" opacity="0.35" stroke-linecap="round"/>
  <path d="M20 22C20 22 24 22.2 26 22" stroke="#4a6552" stroke-width="0.7" opacity="0.35" stroke-linecap="round"/>

  <!-- Top edge highlight for depth -->
  <line x1="5" y1="6" x2="15" y2="6" stroke="#a8c2ad" stroke-width="1" opacity="0.5"/>
  <line x1="17" y1="6" x2="27" y2="6" stroke="#a8c2ad" stroke-width="1" opacity="0.5"/>
</svg>
